<?xml version="1.0" standalone="no"?>
<!DOCTYPE svg PUBLIC "-//W3C//DTD SVG 1.1//EN" "http://www.w3.org/Graphics/SVG/1.1/DTD/svg11.dtd" >
<svg xmlns="http://www.w3.org/2000/svg">
<metadata></metadata>
<defs>
<font id="babuka_mtavruliregular" horiz-adv-x="1036" >
<font-face units-per-em="2048" ascent="1638" descent="-410" />
<missing-glyph horiz-adv-x="930" />
<glyph unicode="&#xd;" horiz-adv-x="930" />
<glyph unicode=" "  horiz-adv-x="930" />
<glyph unicode="&#x09;" horiz-adv-x="930" />
<glyph unicode="&#xa0;" horiz-adv-x="930" />
<glyph unicode="!" horiz-adv-x="416" d="M104 293v1001h160v-1001h-160zM61 90q0 51 35 84q33 31 80 31q49 0 86 -27q35 -26 45 -88q0 -55 -35 -86q-36 -33 -88 -33q-49 0 -86 31t-37 88z" />
<glyph unicode="&#x22;" horiz-adv-x="625" d="M80 786v508h158v-508h-158zM338 786v508h164v-508h-164z" />
<glyph unicode="#" d="M51 393v119h201l29 274h-187v115h201l43 393h135l-47 -393h219l43 393h131l-43 -393h176v-115h-192l-29 -274h174v-119h-188l-43 -389h-129l43 389h-219l-60 -389h-129l58 389h-187zM383 512h219l29 274h-219z" />
<glyph unicode="$" d="M152 190v160h288v350q-213 131 -237 160q-66 76 -66 189q0 135 107 200q71 43 196 60v147h148v-147h246v-158h-246v-336q170 -98 215 -143q88 -86 88 -221q0 -103 -55 -172q-72 -91 -220 -91l-28 2v-200h-148v200h-288zM440 887v264q-43 -10 -67 -21q-13 -4 -49 -24 q-11 -25 -21 -49l6 -23q0 -45 35 -86q33 -41 96 -61zM588 350l33 -4q47 0 71 23q25 22 25 53q0 96 -129 205v-277z" />
<glyph unicode="%" horiz-adv-x="1657" d="M289 -10l815 1347h129l-815 -1347h-129zM72 1020q0 139 82 221t221 82q135 0 215 -74q78 -75 78 -215q0 -137 -84 -221t-209 -84q-121 0 -205 68q-98 80 -98 223zM868 293q0 135 78 221q76 84 215 84q146 0 228 -109q65 -88 65 -196q0 -133 -88 -217q-90 -86 -205 -86 q-147 0 -227 106q-66 86 -66 197zM231 1034q0 -71 43 -116.5t101 -45.5q61 0 100 35q47 43 47 127q0 68 -43 107t-100 39t-103 -39q-45 -39 -45 -107zM1016 293q0 -78 51 -117q39 -29 94 -29q144 0 144 146q0 74 -37 117q-39 41 -107 41q-69 0 -106 -48q-39 -49 -39 -110z " />
<glyph unicode="&#x26;" horiz-adv-x="1239" d="M252 934q-86 108 -86 188q0 74 47 119q55 53 170 53h508v-172h-508q-41 0 -41 -22q0 -6 8 -21q8 -14 19 -30l569 -713q14 43 23 80q6 35 6 82q0 71 -37 151q-39 80 -96 137l133 115q80 -67 133 -174q53 -109 53 -215q0 -96 -20 -162q-23 -65 -80 -160l159 -186h-231 l-57 72q-68 -47 -115 -66q-90 -35 -221 -35q-189 0 -340 103q-211 141 -211 420q0 149 74 276q57 100 141 160zM819 219l-450 567q-72 -41 -109 -116.5t-37 -157.5q0 -147 102.5 -256t262.5 -109q76 0 127 14.5t104 57.5z" />
<glyph unicode="'" horiz-adv-x="416" d="M90 915l57 379h160l-88 -379h-129z" />
<glyph unicode="(" horiz-adv-x="705" d="M104 512q0 297 142 524q92 148 252 273l86 -86q-60 -60 -119 -117q-94 -100 -146 -223q-71 -172 -71 -400q0 -225 100 -428q94 -190 236 -282l-72 -115q-242 182 -340 446q-68 183 -68 408z" />
<glyph unicode=")" horiz-adv-x="705" d="M408 483q0 260 -107 465q-88 172 -225 260l71 115q172 -109 287 -315q135 -242 135 -525q0 -245 -100 -460q-111 -238 -307 -351l-72 101q164 125 244 301q74 162 74 352v57z" />
<glyph unicode="*" horiz-adv-x="950" d="M354 934l-245 115l71 131l232 -174l-29 288h147l-28 -288l229 174l74 -131l-246 -115l246 -133l-74 -115l-215 143l14 -260h-147l14 260l-217 -143l-71 115z" />
<glyph unicode="+" horiz-adv-x="1116" d="M76 365v161h360v361h162v-361h350v-161h-350v-361h-162v361h-360z" />
<glyph unicode="," horiz-adv-x="496" d="M100 -184l74 374h186l-114 -374h-146z" />
<glyph unicode="-" horiz-adv-x="496" d="M29 379v147h422v-147h-422z" />
<glyph unicode="." horiz-adv-x="496" d="M129 104q0 52 29 76q28 25 73 25h21q39 0 66.5 -27.5t27.5 -73.5q0 -55 -31.5 -86.5t-76.5 -31.5q-43 0 -76 30q-33 31 -33 88z" />
<glyph unicode="/" horiz-adv-x="496" d="M-43 -10l389 1347h162l-393 -1347h-158z" />
<glyph unicode="0" d="M51 436v422q0 205 131 336q129 129 320 129q211 0 342 -156q108 -129 108 -262v-497q0 -158 -108 -285q-127 -148 -328 -148q-235 0 -362 160q-103 129 -103 301zM760 451v421q0 144 -80 215q-70 64 -178 64q-144 0 -209 -94q-55 -80 -55 -228v-360q0 -160 67 -233 q68 -74 197 -74q108 0 178 59q80 68 80 197v33z" />
<glyph unicode="1" d="M180 1137l43 157h365v-1290h-176v1133h-232z" />
<glyph unicode="2" d="M51 901q0 172 123 293q131 129 342 129q225 0 342 -143q94 -117 94 -279q0 -127 -55 -213q-63 -98 -252 -237l-364 -275h657v-172h-700l-25 -4q-76 0 -125 41q-51 41 -51 100q0 68 72 123l493 391q72 50 111 109q47 72 47 151q0 97 -66 162q-76 74 -207 74 q-114 0 -186 -80q-63 -72 -63 -170q0 -123 96 -194q63 -50 153 -66l-163 -129q-150 76 -211 164q-62 86 -62 225z" />
<glyph unicode="3" d="M94 1122v172h551q111 0 162 -45q41 -37 41 -98q0 -53 -37 -100q-29 -37 -94 -88l-201 -177q168 0 283 -92q125 -100 125 -276v-25q0 -180 -107 -284q-106 -105 -272 -105h-479v158h421l15 -4q110 0 178 71q65 70 65 164t-65 160q-76 74 -207 74h-235v131l407 364h-551z " />
<glyph unicode="4" d="M573 451v569l187 303v-872h192v-158h-192v-289h-187v289h-393l-37 -4q-147 0 -147 110q0 52 27 99l450 796h201l-479 -843h378z" />
<glyph unicode="5" d="M137 627v667h682v-172h-510v-336h207q186 0 291 -79q131 -99 131 -314q0 -162 -100 -276q-103 -117 -232 -117l-18 4h-508v158h422l24 -4q119 0 176 82q43 61 43 153q-12 119 -65 172q-64 62 -207 62h-336z" />
<glyph unicode="6" d="M23 451q0 100 24 167q6 17 119 197l336 479h215l-348 -493q-52 -78 -101 -156q-73 -123 -73 -237q0 -101 81 -181q82 -80 211 -80q119 0 205 82q84 80 84 207q0 152 -88 238q-90 84 -242 84h-34l118 157q205 0 328 -147q113 -135 113 -317q0 -185 -115 -314 q-131 -147 -354 -147q-215 0 -346 131q-133 129 -133 330z" />
<glyph unicode="7" d="M51 1122v172h651q97 0 152 -30.5t55 -102.5q0 -45 -32 -127l-451 -1030h-217l493 1118h-651z" />
<glyph unicode="8" d="M238 729q-64 43 -88 98q-27 56 -27 150q0 125 92 219q111 113 301 113q152 0 256 -95q105 -94 105 -229v-22q0 -84 -31 -140q-33 -55 -86 -94q127 -84 170 -166q37 -71 37 -198q0 -166 -129 -277q-131 -113 -336 -113q-252 0 -375 148q-90 108 -90 256q0 108 51 192 q45 76 150 158zM309 963q0 -68 45 -117q54 -60 148 -60q102 11 147 66q39 47 39 125q0 63 -39 106q-49 54 -147 54q-88 0 -135 -37q-58 -45 -58 -137zM223 393q0 -114 70 -180q67 -66 209 -66q125 0 199.5 57.5t74.5 174.5q0 129 -94 194q-76 54 -180 54q-135 0 -211 -72 q-68 -63 -68 -162z" />
<glyph unicode="9" d="M23 829q0 177 104 304q133 161 389 161q197 0 324 -127t127 -323q0 -99 -27 -166q-27 -70 -106 -180l-347 -494h-221l408 565q59 70 84 150q18 59 18 139q0 113 -78 197q-80 82 -196 82q-135 0 -215 -72q-92 -84 -92 -250q0 -121 98 -207t233 -86l33 4l-100 -147 q-242 0 -355 164q-81 119 -81 286z" />
<glyph unicode=":" horiz-adv-x="496" d="M115 627q0 51 28 78q27 24 74 24h21q38 0 67 -27q27 -28 27 -75q0 -56 -31 -86q-33 -33 -78 -33t-76.5 30.5t-31.5 88.5zM129 90q0 51 28.5 75.5t73.5 24.5h21q39 0 67 -26q27 -29 27 -74q0 -55 -31 -86q-32 -33 -77 -33q-43 0 -76 31t-33 88z" />
<glyph unicode=";" horiz-adv-x="496" d="M86 -184l72 374h188l-115 -374h-145zM115 627q0 51 28 78q27 24 74 24h21q38 0 67 -27q27 -28 27 -75q0 -56 -31 -86q-33 -33 -78 -33t-76.5 30.5t-31.5 88.5z" />
<glyph unicode="&#x3c;" horiz-adv-x="1116" d="M90 365v147l887 389v-158l-698 -307l698 -303v-143z" />
<glyph unicode="=" horiz-adv-x="1116" d="M90 541v145h901v-145h-901zM90 190v146h901v-146h-901z" />
<glyph unicode="&#x3e;" horiz-adv-x="1116" d="M801 451l-697 307v157l887 -389v-147l-887 -389v157z" />
<glyph unicode="?" horiz-adv-x="827" d="M309 307v408q142 0 205 26q117 50 117 193q0 86 -53 153q-62 78 -166 78q-99 0 -148 -80q-41 -67 -41 -170h-186q0 181 103.5 294.5t285.5 113.5q176 0 283 -117q96 -106 96 -258q0 -164 -94 -270q-97 -109 -238 -109v-262h-164zM266 104q0 52 35 76q33 25 82 25h20 q43 0 78 -27.5t35 -73.5q0 -55 -35 -86q-37 -32 -84 -32t-86 30q-39 31 -45 88z" />
<glyph unicode="@" horiz-adv-x="1491" d="M76 641l-4 27q0 250 176 444q190 211 481 211q320 0 492 -197q131 -151 131 -340q0 -129 -31 -213q-33 -86 -113 -180q-61 -61 -127 -96q-65 -37 -139 -37l-41 4q-37 0 -57 19q-29 26 -29 82q-35 -46 -86 -72q-51 -29 -117 -29q-114 0 -192 68q-88 76 -88 209l4 28 q0 172 100 308q117 157 307 157q70 0 129 -43q52 -37 76 -90l29 105h129l-143 -537q0 -84 47 -84q61 0 133 104q82 119 94 269v20q0 154 -121 281q-143 149 -373 149q-180 0 -340 -129q-198 -159 -198 -424l-2 -24q0 -240 188 -395q164 -136 354 -136l27 4q125 0 244 60 q117 59 149 129h144q-99 -143 -195 -207q-145 -96 -371 -96q-317 0 -510 217q-161 182 -161 405zM887 715v24q0 64 -41 107q-43 41 -103 41q-98 0 -172 -96q-73 -99 -73 -222q0 -84 45 -133q39 -43 98 -43q86 0 166 107q80 104 80 215z" />
<glyph unicode="A" d="M66 4v854q0 205 116 336q115 129 320 129q200 0 325 -133t125 -356v-830h-176v594h-481v174h481v47q0 170 -69.5 258t-190.5 88q-156 0 -227 -114q-51 -82 -51 -193v-854h-172z" />
<glyph unicode="B" d="M80 4v897q0 168 94 283q115 139 328 139q172 0 282 -86q121 -94 121 -260q0 -125 -26 -176q-29 -51 -103 -101q111 -41 162 -131q43 -75 43 -176v-28q0 -154 -104 -259q-107 -106 -252 -106l-23 4h-278v172h235q109 0 172 45q74 53 74 158q0 115 -74 168q-74 51 -201 51 h-206v160h163q127 0 191 61q53 51 53 129q0 101 -59 160q-62 57 -170 57q-123 0 -185 -80q-51 -65 -51 -170v-911h-186z" />
<glyph unicode="C" horiz-adv-x="950" d="M238 940v-330q59 47 117.5 74t131.5 27q148 0 247.5 -82t99.5 -221v-404h-160v318q0 106 -56 170q-57 61 -145 61q-121 0 -184 -84q-51 -68 -51 -162v-303h-158v934q0 211 119 315q100 88 260 88q129 0 233 -75q92 -66 158 -185l-481 -256l-64 117l326 170q-45 49 -51 53 q-48 33 -121 33q-123 0 -176 -74q-45 -63 -45 -184z" />
<glyph unicode="D" horiz-adv-x="1159" d="M113 4v1290h407q201 0 371 -159q194 -183 194 -453v-27q0 -110 -47 -237q-65 -174 -186 -279q-158 -135 -391 -135h-105v172h105l18 -2q201 0 320 178q96 144 96 303v31q0 182 -113 307q-129 144 -352 144h-131v-1133h-186z" />
<glyph unicode="E" horiz-adv-x="0" />
<glyph unicode="F" horiz-adv-x="705" d="M33 4v854q0 248 135 354q104 82 301 82h186v-157h-172q-133 0 -200 -54q-78 -61 -78 -196v-158h450v-160h-450v-565h-172z" />
<glyph unicode="G" horiz-adv-x="1448" d="M39 655q0 326 244 514q198 154 438 154q153 0 278 -55.5t244 -175.5l-115 -129q-84 84 -170 133q-120 69 -237 69q-242 0 -377 -168q-117 -145 -117 -342q0 -202 121 -346q137 -162 373 -162l22 -4q191 0 324 144q119 129 119 282h-451v174h639v-159q0 -271 -200 -439 q-187 -155 -453 -155q-295 0 -488.5 187.5t-193.5 477.5z" />
<glyph unicode="H" horiz-adv-x="1159" d="M113 4v1290h172v-522h551v522h178v-1290h-178v594h-551v-594h-172z" />
<glyph unicode="I" horiz-adv-x="416" d="M90 4v1290h174v-1290h-174z" />
<glyph unicode="J" horiz-adv-x="901" d="M90 991q-10 15 -16 31t-6 41q0 102 168 186q145 74 309 88q90 0 178 -67q100 -78 100 -183v-163v-490q0 -188 -129 -311q-131 -123 -350 -123q-104 0 -178 16q-76 17 -129 43l43 144q151 -43 264 -43q131 0 217 71q86 72 86 181v436v229q0 49 -31 82q-32 31 -86 31 q-94 0 -198 -47q-107 -49 -107 -78q8 -14 15 -14q120 -47 163 -95.5t43 -144.5q0 -127 -79 -176q-54 -33 -142 -33h-45h-125v121h135h39q33 0 60 27q24 24 24 67q0 55 -32 84q-35 29 -129 60q-31 10 -37 14q-9 4 -25 16z" />
<glyph unicode="K" d="M94 1294h187v-551h178q53 0 102 62q49 59 84 158l146 331h219l-176 -407q-13 -45 -60 -99q-47 -53 -100 -73q131 -37 192 -109q72 -84 72 -241v-361h-193v361q0 104 -59 161q-59 58 -184 58h-221v-580h-187v1290z" />
<glyph unicode="L" horiz-adv-x="705" d="M104 1294h175v-843q0 -136 49 -207q59 -86 194 -86l33 4h145v-158h-202q-138 0 -246 74q-148 100 -148 301v915z" />
<glyph unicode="M" horiz-adv-x="1448" d="M-18 4l145 1147q0 76 45 119t107 43q53 0 100 -37q47 -39 65 -111l263 -872l249 858q17 82 64 125q47 41 102 41q58 0 105 -39q45 -41 45 -98l149 -1176h-192l-115 1059l-293 -973q-10 -47 -45 -72.5t-76 -25.5q-38 0 -69 22q-31 23 -39 62l-307 987l-115 -1059h-188z " />
<glyph unicode="N" horiz-adv-x="1159" d="M68 4v1118q0 82 49 129t114 47q48 0 91 -26.5t63 -77.5l451 -946v1046h178v-1204q0 -57 -35 -84q-35 -29 -88 -29q-47 0 -92 25q-47 23 -64 59l-479 988v-1045h-188z" />
<glyph unicode="O" d="M51 469q0 199 133 324q133 122 318 122q184 0 313 -106q152 -125 152 -358q0 -172 -109 -306q-127 -155 -328 -155q-239 0 -364 139q-115 127 -115 340zM223 469q0 -127 56 -211q73 -111 223 -111q133 0 203 66q86 80 86 256q0 131 -74 211q-76 78 -215 78 q-142 0 -217 -96q-62 -78 -62 -193z" />
<glyph unicode="P" horiz-adv-x="950" d="M66 4v868q0 203 124 328q123 123 297 123q152 0 283 -106q154 -125 154 -316q0 -199 -129 -309q-109 -94 -250 -94h-250v157h164l24 -2q150 0 211 99q37 59 37 149q0 125 -78 195q-61 55 -166 55q-151 0 -206 -102q-43 -80 -43 -248v-797h-172z" />
<glyph unicode="Q" horiz-adv-x="1448" d="M649 -256v692h187v-274q161 45 264 176q100 131 100 332q0 192 -135 340q-141 155 -344 155q-234 0 -379 -168q-129 -149 -129 -342q0 -174 104 -317q105 -143 261 -176v-158q-199 27 -355 172q-198 184 -198 479q0 275 215 475q206 193 467 193q243 0 438 -154 q229 -182 229 -483v-41q0 -248 -153 -424q-156 -176 -385 -217v-260h-187z" />
<glyph unicode="R" horiz-adv-x="1290" d="M227 434q0 -123 86 -198.5t219 -75.5q125 0 277 43l43 -144q-53 -26 -127 -43q-76 -16 -180 -16q-219 0 -342 117q-137 129 -137 317v608q0 129 94 215q92 84 241 84q103 0 158 -28.5t90 -85.5q37 49 96 78q76 36 168 36q127 0 222 -71q94 -74 94 -185v-415h-158v358 q0 55 -47 112.5t-111 57.5q-75 0 -127 -59q-51 -60 -51 -129v-340h-157v325q0 90 -46 148q-45 55 -131 55q-100 -10 -141 -76q-33 -51 -33 -141v-547z" />
<glyph unicode="S" d="M494 1180q22 69 67 114q57 58 137 58q150 0 205 -107q35 -67 35 -194v-625q0 -145 -96 -279q-123 -172 -338 -172h-17q-229 0 -350 148q-100 123 -100 299l-4 24q0 205 141 332q121 109 266 109q115 0 176 -17q41 -10 86 -41v-174q-34 25 -106 49.5t-137 24.5 q-103 0 -185 -80q-84 -82 -84 -217l5 -24q18 -162 124 -230q72 -45 183 -45q133 0 198 103q60 92 60 256v565q0 55 -19 92q-26 51 -82 51q-45 0 -67.5 -45t-22.5 -96h-151q0 51 -25 92q-31 49 -80 49q-47 0 -75 -43q-31 -43 -31 -98v-58h-158v50q0 120 41 194 q60 109 199 109q106 0 153 -58q23 -26 52 -116z" />
<glyph unicode="T" horiz-adv-x="1495" d="M791 469v430q0 131 -74 211q-76 78 -215 78q-142 0 -217 -96q-62 -78 -62 -193v-430q0 -127 56 -211q73 -111 223 -111q133 0 203 66q86 80 86 256zM967 451q0 -172 -109 -306q-127 -155 -328 -155q-239 0 -364 139q-115 127 -115 340v430q0 199 133 324q133 123 318 123 q94 0 184 -31q88 -33 156 -101q37 50 96 80q72 37 168 37q127 0 221 -71q94 -74 94 -185v-1071h-157v1014q0 55 -47 112q-48 58 -111 58q-59 0 -105 -37q-45 -37 -63 -92q29 -80 29 -178v-430z" />
<glyph unicode="U" horiz-adv-x="950" d="M80 887h158v-537q0 -98 59 -157.5t162 -59.5q90 0 149 78q51 68 51 154v522h160v-541q0 -156 -98 -262q-100 -109 -262 -109q-176 0 -273 93q-106 102 -106 311v508z" />
<glyph unicode="V" d="M-66 1294h203l379 -1075l318 1075h204l-379 -1190q-16 -49 -38 -73q-39 -41 -105 -41q-65 0 -96 28q-33 29 -66 115z" />
<glyph unicode="W" horiz-adv-x="1065" d="M627 512q-80 -45 -176 -45q-129 0 -234 76q-92 65 -158 184l607 322v294h178v-200l110 61l64 -117l-174 -94v-559q0 -188 -129 -311q-131 -123 -350 -123q-105 0 -179 16q-75 17 -129 43l43 144q152 -43 265 -43q131 0 217 71q86 72 86 181v485l-383 -209q45 -49 67 -59 q41 -19 99 -19q131 0 176 72v-170z" />
<glyph unicode="X" d="M-8 1122v172q184 0 319 -98q133 -100 191 -281q41 172 188 277q146 102 320 102v-172q-162 0 -277 -102q-145 -129 -145 -379q0 -184 114 -326q115 -141 269 -141l39 2v-172l-43 -4q-160 0 -312 121q-153 119 -153 258q-31 -156 -170 -266q-142 -113 -314 -113l-26 4v172 l22 -2q142 0 254 119q129 135 129 348q0 195 -88 315q-104 144 -317 166z" />
<glyph unicode="Y" horiz-adv-x="950" d="M23 1294h172v-407q0 -86 51 -137q63 -64 194 -64q111 0 176 59q58 52 58 113v436h174v-407q0 -158 -94 -260q-97 -103 -224 -115v-508h-176v508q-110 16 -202 96q-129 113 -129 293v393z" />
<glyph unicode="Z" horiz-adv-x="1044" d="M770 1341h178v-915q0 -145 -96 -279q-123 -172 -338 -172h-16q-230 0 -351 148q-100 123 -100 299l-4 24q0 205 141 332q121 109 267 109q114 0 176 -17q41 -10 86 -41v-174q-35 25 -107 50q-71 24 -137 24q-102 0 -184 -80q-84 -82 -84 -217l4 -24q18 -162 125 -230 q71 -45 182 -45q131 0 199 113q59 98 59 266v829z" />
<glyph unicode="[" horiz-adv-x="705" d="M205 -313v1607h321v-86h-161v-1435h161v-86h-321z" />
<glyph unicode="\" horiz-adv-x="496" d="M-158 1309h158l610 -1319h-145z" />
<glyph unicode="]" horiz-adv-x="705" d="M176 -313v86h160v1421h-160v100h322v-1607h-322z" />
<glyph unicode="^" horiz-adv-x="1116" d="M104 526l365 754h158l364 -754h-162l-288 596l-277 -596h-160z" />
<glyph unicode="_" horiz-adv-x="950" d="M-8 -113h932v-100h-932v100z" />
<glyph unicode="`" horiz-adv-x="416" d="M147 901l-86 379h172l60 -379h-146z" />
<glyph unicode="a" horiz-adv-x="860" d="M795 356q0 -170 -58 -247q-100 -138 -385 -138q-104 0 -178 17q-76 16 -129 43l43 143q152 -43 264 -43q152 0 209 33q70 41 70 151v430q0 70 -84 144q-70 61 -162 92q-117 39 -160 123q-45 82 -45 239h168q0 -124 45 -180q25 -28 107 -69q108 -52 184 -121 q96 -88 111 -187v-430z" />
<glyph unicode="b" horiz-adv-x="1034" d="M223 469q0 -127 56 -211q73 -111 223 -111q133 0 203 66q86 80 86 256q0 131 -74 211q-76 78 -215 78q-142 0 -217 -96q-62 -78 -62 -193zM268 1014h-118v327h122v-112q150 0 217 -35q117 -59 117 -233l-2 -56q154 -28 250 -133q113 -123 113 -321q0 -172 -109 -306 q-127 -155 -328 -155q-239 0 -364 139q-115 127 -115 340q0 184 115 305q113 119 278 137q0 129 -30.5 162t-100.5 33l-45 -4v-88z" />
<glyph unicode="c" d="M770 870q82 -55 137 -163q56 -109 56 -240v-25q0 -178 -99 -299q-121 -147 -352 -147h-16q-215 0 -338 172q-97 133 -97 278v895h179v-809q0 -170 57 -266q68 -112 201 -112q110 0 182 45q106 67 125 229v25q0 112 -37 184q-39 70 -117 121q-28 18 -47 39q-35 39 -49 98 l-6 147q0 138 59 199q74 78 283 96v-131q-107 0 -154 -51q-37 -41 -37 -117q0 -24 2 -41q3 -18 15 -63q6 -21 20 -35q13 -16 33 -29z" />
<glyph unicode="d" d="M809 203l43 -144q-53 -26 -127 -43q-76 -16 -180 -16q-219 0 -342 119q-137 131 -137 321v480q0 178 137 299q135 118 313 118q168 0 299 -100q166 -127 166 -365q0 -198 -104 -321q-119 -139 -347 -139q-79 0 -133 12q-53 12 -96 45v172q51 -41 102 -55q52 -17 113 -17 q139 0 223 80t84 195q0 170 -98 260q-84 76 -209 76q-113 0 -192 -93q-82 -94 -82 -243v-426q0 -109 86 -182q84 -76 217 -76q65 0 125 10q57 10 139 33z" />
<glyph unicode="e" horiz-adv-x="942" d="M254 969h-158q0 159 107 268q104 106 286 106q121 0 224 -67q141 -94 141 -270v-572q0 -188 -129 -311q-131 -123 -350 -123q-105 0 -178 16q-76 17 -129 43l43 144q151 -43 264 -43q131 0 217 71q86 72 86 181l-2 542q0 97 -45 158q-53 74 -156 74q-96 0 -151 -62 q-58 -63 -70 -155z" />
<glyph unicode="f" horiz-adv-x="1495" d="M223 899q0 -127 56 -211q73 -110 223 -110q133 0 203 65q86 80 86 256q0 131 -74 211q-76 78 -215 78q-142 0 -217 -96q-62 -78 -62 -193zM1264 1018q0 90 -43 131q-45 39 -115 39q-59 0 -105 -37q-45 -37 -63 -92q29 -80 29 -178q0 -172 -109 -306q-127 -155 -328 -155 q-239 0 -364 139q-115 127 -115 340q0 199 133 324q133 123 318 123q94 0 184 -31q88 -33 156 -101q37 50 96 80q72 37 168 37q127 0 221 -71q94 -74 94 -185q2 -16 5.5 -71.5t3.5 -92.5q0 -145 -19 -239q-25 -129 -80 -172q49 -47 62 -62q37 -45 37 -143q0 -96 -78 -174 q-121 -121 -394 -121q-141 0 -317 33t-227 59l43 144q65 -19 256 -48q188 -28 245 -28q136 0 222 35q86 32 86 92q0 67 -23 102q-31 45 -104 53h-62v154h10q103 0 148 90q35 70 35 203z" />
<glyph unicode="g" horiz-adv-x="1034" d="M223 479q0 -127 56 -211q73 -110 223 -110q133 0 203 65q86 80 86 256q0 131 -74 211q-76 78 -215 78q-142 0 -217 -96q-62 -78 -62 -193zM150 1073v264h147q123 0 205 -75q104 -99 104 -297l-2 -50q154 -28 250 -133q113 -123 113 -321q0 -172 -109 -305 q-127 -156 -328 -156q-239 0 -364 139q-115 127 -115 340q0 185 115 305q113 119 278 138q0 110 -22 163q-41 95 -154 95v-107h-118z" />
<glyph unicode="h" horiz-adv-x="840" d="M596 258q0 41 -35 61q-37 21 -86 21h-57h-109v137h109h57q43 0 82 33q37 31 37 76t-33 71q-33 27 -86 27h-57h-109v137h109h57q53 0 80 15q39 20 39 65q0 60 -84 96q-47 21 -209 64q-127 35 -186 92q-72 70 -72 184h172q0 -63 96 -108q35 -17 164 -58q146 -55 172 -67 q119 -60 119 -174q-8 -72 -61 -119q-43 -37 -109 -57q68 -21 106 -52q52 -40 60 -112q-8 -72 -60 -121q-43 -41 -106 -59q90 -27 123 -64q33 -39 39 -96q0 -141 -99 -213q-75 -55 -186 -55l-70 2h-360v147h375h57q45 0 84 37q37 35 37 90z" />
<glyph unicode="i" horiz-adv-x="950" d="M94 4v967q0 159 107 268q104 107 286 107q121 0 222 -68q139 -94 139 -270v-1004h-174v952q0 97 -45 158q-54 74 -156 74q-96 0 -151 -62q-58 -63 -70 -155v-967h-158z" />
<glyph unicode="j" horiz-adv-x="963" d="M512 791l377 -795h-178l-305 643l-144 -201q113 -45 152 -90q37 -47 37 -143q0 -127 -80 -176q-54 -33 -142 -33h-45h-125v121h136h38q33 0 60 26q24 25 24 68q0 55 -32 84q-35 29 -129 59q-29 11 -47 21q-35 20 -35 43q4 16 8 20l252 355l-252 526h178l180 -377l273 381 h178z" />
<glyph unicode="k" horiz-adv-x="901" d="M379 -4q-119 0 -193 14q-73 15 -129 43l43 144q152 -43 265 -43q110 0 182 45q106 67 125 229l4 168q0 135 -25 186q-43 88 -176 88v-215l-178 -86v772h178v-299q197 -22 279 -133q73 -100 73 -295l2 -172q0 -178 -98 -299q-121 -147 -352 -147z" />
<glyph unicode="l" d="M981 877v-203h-158v174q0 170 -98 260q-84 76 -209 76q-113 0 -192 -92q-82 -95 -82 -244v-436q0 -111 86 -181q84 -71 217 -71q65 0 125 10q57 10 139 33l43 -144q-53 -26 -127 -43q-76 -16 -180 -16q-219 0 -342 117q-137 129 -137 317v490q0 178 137 299 q135 118 313 118q168 0 299 -100q166 -127 166 -364z" />
<glyph unicode="m" d="M244 1010h-191q33 153 158 247q123 93 281 93q170 0 301 -99q168 -127 168 -362v-488q0 -180 -134 -299q-133 -118 -311 -118q-168 0 -299 100q-166 127 -166 365q0 198 105 321q118 139 346 139q80 0 133 -12t96 -45v-172q-51 41 -102 56.5t-113 15.5q-139 0 -223 -80 t-84 -195q0 -170 98 -260q84 -76 209 -76q113 0 195 95q80 92 80 241v383q0 170 -95 258q-80 76 -204 76q-80 0 -146 -47q-67 -49 -102 -137z" />
<glyph unicode="n" d="M61 1024q0 180 117 262q80 55 193 55h534v-157h-487q-107 0 -148 -68q-28 -47 -28 -139l-2 -465q0 -170 57 -266q68 -113 201 -113q110 0 182 45q106 68 125 230l4 24q0 133 -86 219q-78 78 -182 78q-72 0 -138 -22q-65 -23 -106 -52v174q51 35 113 48q61 10 149 10 q148 0 266 -107q142 -127 142 -334l-4 -24q0 -178 -99 -299q-121 -148 -352 -148h-16q-215 0 -338 172q-97 134 -97 279v598z" />
<glyph unicode="o" horiz-adv-x="1360" d="M756 997v-430h-154v428q0 96 -41 148q-45 55 -131 55q-100 -10 -141 -76q-33 -51 -33 -141v-977h-158v1049q0 123 92 207q91 81 240 81q102 0 157.5 -28.5t90.5 -85.5q37 49 96 78q76 36 168 36q127 0 221 -71q94 -74 94 -185v-1081h-157v977q0 90 -33 141 q-41 66 -141 76q-86 0 -131 -55q-39 -49 -39 -146z" />
<glyph unicode="p" horiz-adv-x="963" d="M864 352q0 -114 -76 -213q-122 -159 -403 -159q-104 0 -178 16q-76 16 -129 43l43 143q151 -43 264 -43q143 0 217 41q86 47 86 150q0 98 -37 153q-47 70 -145 70h-94v145h108h58q40 0 79 47q39 48 39 95q0 59 -84 96q-47 20 -209 63q-114 31 -186 125q-72 95 -72 219 h172q0 -112 97 -165q8 -4 168 -54q157 -49 223 -110q63 -64 63 -174q-12 -80 -57 -148q-47 -67 -104 -84q81 -35 120 -102q37 -68 37 -154z" />
<glyph unicode="q" horiz-adv-x="655" d="M416 1001v349h159v-1063q0 -115 -81 -197q-91 -90 -236 -90h-190v158h196q90 0 127 78q25 53 25 139v147q0 142 -31 217q-53 133 -203 133h-125v150h144q78 0 139 -37q49 -29 76 -70v86z" />
<glyph unicode="r" horiz-adv-x="950" d="M80 1348h158v-533q59 47 117.5 73.5t131.5 26.5q148 0 247.5 -81.5t99.5 -221.5v-608h-160v522q0 107 -56.5 169.5t-144.5 62.5q-121 0 -184 -84q-51 -68 -51 -162v-508h-158v1344z" />
<glyph unicode="s" d="M541 729l14 158q147 0 266 -107q142 -127 142 -334v-24q0 -178 -99 -299q-121 -148 -352 -148h-16q-215 0 -338 172q-97 134 -97 279v915h179v-829q0 -170 57 -266q68 -113 201 -113q110 0 182 45q106 68 125 230l4 24q0 133 -86 219q-78 78 -182 78z" />
<glyph unicode="t" d="M649 1042q191 0 260 -131q52 -98 52 -317l2 -152q0 -178 -99 -299q-121 -147 -352 -147h-16q-215 0 -338 172q-97 133 -97 278v445h179v-359q0 -170 57 -266q68 -112 201 -112q110 0 182 45q106 67 125 229l4 147v72q0 115 -23 166q-34 80 -135 80v-236l-180 -88v772h178 v-299z" />
<glyph unicode="u" horiz-adv-x="922" d="M668 848v229q0 49 -31 82q-33 31 -86 31q-78 0 -154 -64q-78 -65 -137 -65q-80 0 -139 45q-60 43 -94 117l75 114q33 -69 74 -98q41 -31 84 -31q53 0 135 66q80 63 170 63q84 0 172 -63q107 -78 107 -187v-163v-490q0 -188 -129 -311q-131 -123 -350 -123q-105 0 -179 16 q-75 17 -129 43l43 144q152 -43 265 -43q131 0 217 71q86 72 86 181v436z" />
<glyph unicode="v" horiz-adv-x="952" d="M854 1006v-64q0 -55 -18 -98q-27 -64 -107 -158q82 -47 111 -154q16 -59 16 -155q0 -168 -133 -277q-123 -100 -338 -100l-41 -2q-86 0 -149 18q-66 17 -117 43l43 144q151 -43 264 -43q127 0 209 73q74 66 94 179q0 88 -24 131q-31 53 -99 53h-164v154h113q92 0 131 63 q31 49 31 141q0 97 -45 158q-53 74 -156 74q-96 0 -151 -62q-58 -63 -70 -155h-158q0 159 107 268q104 106 286 106q121 0 224 -67q141 -94 141 -270z" />
<glyph unicode="w" d="M68 1112q0 105 102 174q84 57 170 57q88 0 223 -63q135 -66 185 -66q45 0 79 27q43 33 78 102l76 -114q-35 -76 -88 -115q-62 -47 -145 -47q-62 0 -187 66q-125 63 -207 63q-53 0 -84.5 -31.5t-31.5 -83.5v-630q0 -144 73 -230q72 -88 205 -88q139 0 219 103 q70 88 70 200q0 154 -88 236q-76 71 -187 71q-75 0 -155 -36q-41 -19 -80 -37v159q55 33 121 52q63 16 125 16q178 0 305 -115q135 -123 135 -313q0 -201 -119 -340q-131 -154 -346 -154q-219 0 -340 148q-110 135 -110 346z" />
<glyph unicode="x" d="M240 1341v-829q0 -170 57 -266q68 -113 201 -113q110 0 182 45q106 68 125 230l4 24q0 133 -86 219q-78 78 -182 78q-72 0 -138 -22q-65 -23 -106 -52v174q51 35 113 48q61 10 149 10q148 0 266 -107q142 -127 142 -334l-4 -24q0 -178 -99 -299q-121 -148 -352 -148h-16 q-215 0 -338 172q-97 134 -97 279v915h179z" />
<glyph unicode="y" horiz-adv-x="922" d="M840 1343v-909q0 -188 -129 -311t-346 -123q-105 0 -179 16q-75 17 -129 43l43 144q152 -43 265 -43q131 0 217 71q86 72 86 181v178q-39 -25 -88 -39q-50 -16 -101 -16q-176 0 -272 92q-107 102 -107 311v405h158v-434q0 -98 59 -157q60 -60 162 -60q90 0 150 78 q51 68 51 154v419h160z" />
<glyph unicode="z" horiz-adv-x="1270" d="M-20 1073q0 119 59 189q67 79 203 79q114 0 170 -55q75 -76 75 -264l-2 -510q0 -170 58 -266q67 -113 200 -113q111 0 183 45q106 68 125 230l4 24q0 133 -86 219q-78 78 -183 78q-71 0 -137 -22q-65 -23 -106 -52v174q51 35 112 48q62 10 150 10q147 0 266 -107 q141 -127 141 -334l-4 -24q0 -178 -98 -299q-121 -148 -352 -148h-17q-215 0 -338 172q-96 134 -96 279v381q-47 -14 -84 -14q-98 0 -164 63q-79 76 -79 217zM213 1231q-47 0 -72 -23q-39 -37 -39 -127v-53q0 -61 17 -88q24 -39 96 -39q68 0 90 37q17 27 17 90v53 q0 90 -37 125q-27 25 -72 25z" />
<glyph unicode="{" horiz-adv-x="705" d="M33 422v119q69 0 106 59q37 57 37 129v334q0 94 51 164q52 67 138 67h147v-86h-90q-41 0 -55 -37q-17 -38 -17 -122v-349q0 -65 -26 -118q-35 -70 -105 -99q82 -53 106.5 -104t24.5 -146v-346q0 -51 23 -82q20 -32 82 -32h71v-101h-108q-144 0 -195 82q-33 51 -33 164 v272q0 101 -40 166q-44 66 -117 66z" />
<glyph unicode="|" horiz-adv-x="416" d="M104 4v1290h160v-1290h-160z" />
<glyph unicode="}" horiz-adv-x="705" d="M483 483q-77 11 -118 68q-43 57 -43 149v377q0 84 -21 109q-22 22 -82 22h-57v101h102q219 0 219 -232v-319q0 -107 56 -176q45 -56 88 -56v-104q-60 -12 -99 -66q-45 -63 -45 -166v-331q0 -201 -250 -201h-71v100h71q54 0 72 25q17 22 17 90v360q0 199 161 250z" />
<glyph unicode="~" horiz-adv-x="1116" d="M104 422q60 86 103 121q51 41 115 41q88 0 223 -64.5t184 -64.5q45 0 80 26q43 33 78 103l76 -115q-35 -76 -89 -115q-61 -47 -145 -47q-61 0 -186 66q-125 63 -207 63q-49 0 -90 -37q-31 -28 -70 -92z" />
<glyph unicode="&#xa1;" horiz-adv-x="416" d="M76 815q0 49 35 76q32 24 79 24q46 0 82 -30q35 -33 35 -84q0 -49 -33 -78q-34 -31 -79 -31q-48 0 -80 31q-39 37 -39 92zM119 612h145v-983h-145v983z" />
<glyph unicode="&#xa2;" d="M440 1063v231h148v-231h129v-162h-144q-137 0 -206 -47q-72 -47 -72 -154q0 -116 80 -159q53 -29 170 -29h172v-176h-115v-232h-143v232q-133 0 -236 96q-114 109 -114 283q0 151 96 243q110 105 235 105z" />
<glyph unicode="&#xa3;" d="M80 598v160h115v205q0 161 122 266q111 94 256 94q74 0 125 -14q50 -17 78 -43l-45 -160q-37 14 -78 31q-43 14 -80 14q-98 0 -151 -61.5t-53 -174.5v-157h219v-160h-205v-248q0 -80 -18 -127q-19 -49 -56 -61h221l33 -4q90 0 151.5 53t61.5 139v248h176v-248 q0 -133 -82 -231q-98 -119 -272 -119l-25 4h-596v158h74q70 0 115 39q43 37 43 106v29l-14 262h-115z" />
<glyph unicode="&#xa4;" d="M66 436v162h346v117h-346v157h303q-80 152 -174 207q-72 43 -187 43v172q182 0 321.5 -106.5t172.5 -272.5q0 138 150.5 258.5t342.5 120.5v-172q-116 0 -188 -41q-96 -55 -176 -209h307v-157h-336v-117h336v-162h-336v-432h-190v432h-346z" />
<glyph unicode="&#xa7;" horiz-adv-x="950" d="M295 887q-51 55 -72 92q-28 51 -28 113q0 96 73 163q74 68 172 68q119 0 205 -68q72 -75 86 -90l-115 -88q-41 58 -67 80q-43 37 -90 37q-53 0 -82 -27q-31 -28 -31 -67q0 -29 14 -58q15 -28 37 -51l277 -276q88 -88 117 -142q28 -53 28 -122q0 -91 -63 -146 q-66 -57 -140 -57q64 -84 82 -129q19 -45 19 -101q0 -106 -66 -172q-73 -73 -211 -73q-88 0 -151 37q-66 36 -137 137l114 86q31 -62 80 -92q47 -31 98 -31q48 0 82 27q33 24 33 67q0 49 -41 117q-41 65 -92 112q-29 25 -84 80q-6 6 -147 156q-43 43 -72 106q-29 64 -29 111 q0 82 45 131q43 49 156 70zM440 715q-34 26 -63 43q-31 14 -53 14q-11 0 -23 -6q-14 -6 -20 -8q-33 -25 -33 -66q0 -47 47 -104q45 -60 78 -94q33 -37 67 -72q27 -27 68 -51q39 -25 72 -25q24 0 51 19q16 10 22 24q6 12 6 29q0 22 -16 57q-16 33 -41 66q-8 8 -78 86 q-47 53 -84 88z" />
<glyph unicode="&#xa8;" d="M137 915l-100 105l100 102l101 -102q55 45 116 65q60 21 162 21q70 0 133 -16q64 -19 127 -70l115 102l90 -88l-104 -100q43 -53 66.5 -127t23.5 -152q0 -108 -27 -176q-18 -45 -63 -100l104 -100l-90 -89l-100 103q-64 -51 -121 -76q-58 -27 -140 -27q-86 0 -153.5 18.5 t-138.5 70.5l-101 -103l-100 103l100 100q-57 67 -76 156q-10 47 -10 120q0 84 23 152q20 65 63 108zM805 655v27q0 119 -84 201q-86 80 -219 80q-117 0 -201 -84q-92 -93 -92 -238q0 -143 96 -229q84 -76 197 -76l18 -4q109 0 197 88t88 211v24z" />
<glyph unicode="&#xa9;" horiz-adv-x="416" d="M90 915l57 379h160l-88 -379h-129z" />
<glyph unicode="&#xaa;" horiz-adv-x="625" d="M80 786v508h158v-508h-158zM338 786v508h164v-508h-164z" />
<glyph unicode="&#xab;" horiz-adv-x="950" d="M426 451l233 278h146l-232 -278l246 -289h-160zM109 451l229 278h149l-235 -278l250 -289h-164z" />
<glyph unicode="&#xb4;" horiz-adv-x="496" d="M115 627q0 127 65 217q86 119 252 119q160 0 248 -93q88 -92 88 -229q0 -125 -76 -219q-92 -115 -241 -115q-179 0 -271 133q-65 95 -65 187z" />
<glyph unicode="&#xb6;" horiz-adv-x="1116" d="M436 -256v854q-172 0 -280.5 88t-108.5 229q0 215 135 304q94 61 254 61h527v-1536h-162v1421h-203v-1421h-162z" />
<glyph unicode="&#xba;" horiz-adv-x="625" d="M80 786v508h158v-508h-158zM338 786v508h164v-508h-164z" />
<glyph unicode="&#xbb;" horiz-adv-x="950" d="M659 422l-233 293h147l232 -293l-246 -275h-147zM338 422l-229 293h143l235 -293l-249 -275h-144z" />
<glyph unicode="&#xbf;" horiz-adv-x="827" d="M281 786q0 62 34 97q33 32 82 32q52 0 92 -30q41 -33 41 -84q0 -58 -36.5 -90.5t-90.5 -32.5q-47 0 -81 27q-41 32 -41 81zM324 598h163v-408h-51q-108 0 -180 -43q-94 -55 -94 -165l4 -21q10 -104 67 -154q58 -49 150 -49q117 0 162 82q28 54 28 150h187 q0 -228 -150 -332q-102 -72 -241 -72q-127 0 -238 84q-139 107 -139 291q0 199 127 303q84 70 205 86v248z" />
<glyph unicode="&#xc2;" horiz-adv-x="496" d="M115 977l174 260h205l-248 -260h-131z" />
<glyph unicode="&#xc8;" horiz-adv-x="496" d="M-14 1122q0 49 28 76q27 25 72 25q49 0 84 -25q33 -24 33 -76q0 -51 -31 -80q-31 -28 -74 -28t-78 28q-34 29 -34 80zM289 1122q0 49 28 76q27 25 72 25q51 0 86 -25q33 -24 33 -76q0 -51 -33 -80q-33 -28 -78 -28t-75 28q-33 27 -33 80z" />
<glyph unicode="&#xcb;" horiz-adv-x="496" d="M115 -141l116 159h101l-101 -131q37 15 68 15q59 0 107 -39q45 -41 45 -105q0 -61 -41 -100q-60 -57 -193 -57q-88 0 -174 43l43 71q33 -10 64 -16q30 -8 63 -8q41 0 66 16q24 14 24 51q0 31 -24.5 53.5t-61.5 22.5q-27 0 -59 -18z" />
<glyph unicode="&#xe1;" horiz-adv-x="1657" d="M289 743h479v48q0 149 -61 245q-74 115 -213 115q-144 0 -215 -111q-62 -94 -62 -254v-782h-174v782q0 246 115 385q112 138 336 138q145 0 247 -60q119 -69 170 -215q105 123 142 150q129 96 325 96h205v-143h-86q-221 0 -362 -105q-177 -129 -177 -289h625v-159h-639 q23 -176 139 -293q129 -129 326 -129h174v-158h-174l-31 -4q-129 0 -258 72q-129 69 -176 147v-215h-176v580h-479v159z" />
<glyph unicode="&#xe3;" horiz-adv-x="625" d="M487 772v320q-10 75 -77 108q-50 23 -115 23q-76 0 -123 -49q-49 -52 -49 -140q0 -61 47 -119q45 -57 125 -57q45 0 82 15.5t63 41.5v-100q-30 -31 -69 -43q-41 -14 -90 -14q-123 0 -203 80q-86 86 -86 225q0 94 69 168q86 92 234 92q184 0 258 -98q49 -66 49 -176v-277 h-115z" />
<glyph unicode="&#xe9;" horiz-adv-x="1448" d="M313 322l701 727q-158 88 -314 88q-196 0 -329 -125q-144 -135 -144 -357q0 -82 11 -139q18 -110 75 -194zM199 205q-99 117 -133 237q-27 90 -27 228q0 112 53 241q72 172 201 271q166 127 414 127q131 0 221 -29q55 -18 200 -115l144 144h192l-235 -232 q69 -84 104 -157q60 -127 60 -279q0 -129 -56 -262q-71 -172 -211 -275q-176 -129 -434 -129q-151 0 -264 48q-22 10 -143 81l-129 -129h-189zM1042 264q158 158 158 363q0 98 -16 159q-23 88 -84 162l-701 -715q70 -40 150 -67q78 -29 166 -29q86 0 168 31t159 96z" />
<glyph unicode="&#xeb;" horiz-adv-x="625" d="M-8 1020q0 145 112 219q84 55 191 55q125 0 215 -67q106 -80 106 -221q0 -109 -98 -193t-223 -84q-133 0 -215 74q-88 80 -88 217zM123 1020q0 -82 31 -127q43 -64 141 -64q92 0 143 60q49 57 49 131q-10 92 -59 133q-51 41 -133 41q-90 0 -131 -49q-41 -51 -41 -125z " />
<glyph unicode="&#xf1;" horiz-adv-x="1657" d="M43 801q74 45 154 73q110 41 206 41q127 0 232 -51q104 -53 147 -149q39 80 119 131q107 69 260 69q166 0 295 -114q98 -88 141 -203l-610 -262l-76 147l437 172q-33 45 -91.5 74t-123.5 29q-89 0 -177 -84q-102 -99 -102 -238q0 -137 113 -219q96 -70 209 -70 q116 0 176 58q39 37 116 188l144 -57q-60 -189 -191 -277q-104 -69 -245 -69q-195 0 -304 84q-84 96 -104 116q-70 -102 -162 -151q-94 -49 -246 -49q-131 0 -219 53q-112 68 -112 205q0 188 227 297q117 55 383 110q-45 47 -107 76q-63 27 -129 27q-84 0 -151 -19 q-68 -18 -137 -69zM696 512q-106 -10 -207 -43q-65 -23 -186 -76q-47 -18 -78 -61q-30 -43 -30 -84q0 -43 43 -72q41 -29 122 -29q152 0 244 90.5t92 237.5v37z" />
<glyph unicode="&#xf9;" d="M37 436q0 244 166 369q127 96 299 96q96 0 155 -18q60 -21 119 -68l86 86h162l-162 -172q43 -43 68 -96q37 -82 37 -197q0 -143 -86 -266q-125 -180 -379 -180q-109 0 -178 26q-43 17 -101 60l-100 -101h-160l174 172q-63 99 -82 152q-18 51 -18 137zM252 279l407 421 q-30 31 -69 45q-41 13 -88 13q-123 0 -207 -94q-86 -97 -86 -224q0 -45 18 -102q9 -29 25 -59zM731 248q27 33 41 88t14 110q0 50 -10 97q-10 45 -31 69l-407 -422q14 -18 63 -34q48 -19 97 -19q67 0 128.5 26.5t104.5 84.5z" />
<glyph unicode="&#xfb;" horiz-adv-x="1159" d="M199 4v682h-203l43 158h160v162q0 114 92 194t244 80q127 0 221 -72.5t94 -183.5v-18q0 -97 -45 -148q-35 -41 -156 -100q131 -68 262 -135q146 -107 146 -301q0 -138 -84 -224q-92 -94 -252 -94h-307v143h221q133 0 189.5 45.5t56.5 129.5q0 159 -191 260 q-78 36 -155 73q-74 41 -74 99q0 67 88 104q61 25 98 57q45 41 45 91q0 51 -43 83.5t-100 32.5q-115 0 -158 -61q-35 -51 -35 -174v-883h-157z" />
<glyph unicode="&#xe000;" horiz-adv-x="1340" d="M0 1340h1340v-1340h-1340v1340z" />
</font>
</defs>
</svg>
